<svg width="399" height="704" viewBox="0 0 399 704" fill="none" xmlns="http://www.w3.org/2000/svg">
<g filter="url(#filter0_d_232_10)">
<rect x="4" width="391" height="696" rx="55" fill="#F3F3F3" fill-opacity="0.95" shape-rendering="crispEdges"/>
<rect x="6.5" y="2.5" width="386" height="691" rx="52.5" stroke="white" stroke-width="5" shape-rendering="crispEdges"/>
</g>
<rect x="21" y="19" width="354" height="658" rx="55" fill="#F3E4F7"/>
<path d="M332 309.5C332 384.887 272.678 446 199.5 446C126.322 446 67 384.887 67 309.5C67 234.113 126.322 173 199.5 173C272.678 173 332 234.113 332 309.5Z" fill="#CF8EC5"/>
<path fill-rule="evenodd" clip-rule="evenodd" d="M374.732 504.105V637.856H21.3203V504.275C74.1471 496.249 134.498 491.699 198.589 491.699C262.225 491.699 322.174 496.185 374.732 504.105Z" fill="#CF8EC5"/>
<path fill-rule="evenodd" clip-rule="evenodd" d="M335.583 592.019C357.788 593.537 374.732 612.185 374.732 634.442V634.442C374.732 658.242 355.438 677.536 331.638 677.536H64.3753C40.5967 677.536 21.3203 658.26 21.3203 634.481V634.481C21.3203 612.257 38.2297 593.633 60.4016 592.101C103.184 589.145 149.803 587.521 198.589 587.521C246.922 587.521 293.127 589.115 335.583 592.019Z" fill="#CF8EC5"/>
<rect x="78" y="610" width="240" height="3" fill="white"/>
<path d="M162.436 572.624H167.224V580.22H162.436V572.624ZM164.848 555.56C171.976 555.56 177.304 559.196 177.304 564.74C177.304 570.356 171.976 573.956 164.848 573.956C157.72 573.956 152.392 570.356 152.392 564.74C152.392 559.196 157.72 555.56 164.848 555.56ZM164.848 559.34C160.276 559.34 157.108 561.356 157.108 564.74C157.108 568.196 160.276 570.176 164.848 570.176C169.42 570.176 172.588 568.196 172.588 564.74C172.588 561.356 169.42 559.34 164.848 559.34ZM149.8 579.464H179.968V583.352H149.8V579.464ZM182.881 570.86H213.013V574.676H182.881V570.86ZM186.517 582.812H209.629V586.628H186.517V582.812ZM186.517 576.908H191.305V584.036H186.517V576.908ZM197.965 554.84C205.201 554.84 210.025 557.468 210.025 561.716C210.025 565.964 205.201 568.592 197.965 568.592C190.693 568.592 185.905 565.964 185.905 561.716C185.905 557.468 190.693 554.84 197.965 554.84ZM197.965 558.656C193.465 558.656 190.837 559.7 190.837 561.716C190.837 563.768 193.465 564.776 197.965 564.776C202.465 564.776 205.093 563.768 205.093 561.716C205.093 559.7 202.465 558.656 197.965 558.656ZM240.767 557.972H246.527V561.86H240.767V557.972ZM240.767 565.208H246.527V569.096H240.767V565.208ZM225.287 555.668C230.435 555.668 234.359 559.052 234.359 563.768C234.359 568.448 230.435 571.832 225.287 571.832C220.139 571.832 216.215 568.448 216.215 563.768C216.215 559.052 220.139 555.668 225.287 555.668ZM225.287 559.664C222.767 559.664 220.895 561.212 220.895 563.768C220.895 566.36 222.767 567.836 225.287 567.836C227.807 567.836 229.679 566.36 229.679 563.768C229.679 561.212 227.807 559.664 225.287 559.664ZM237.455 553.868H242.243V573.308H237.455V553.868ZM231.371 574.028C238.247 574.028 242.639 576.512 242.639 580.616C242.639 584.756 238.247 587.204 231.371 587.204C224.459 587.204 220.067 584.756 220.067 580.616C220.067 576.512 224.459 574.028 231.371 574.028ZM231.371 577.808C227.123 577.808 224.819 578.708 224.819 580.616C224.819 582.56 227.123 583.46 231.371 583.46C235.619 583.46 237.887 582.56 237.887 580.616C237.887 578.708 235.619 577.808 231.371 577.808Z" fill="white"/>
<defs>
<filter id="filter0_d_232_10" x="0" y="0" width="399" height="704" filterUnits="userSpaceOnUse" color-interpolation-filters="sRGB">
<feFlood flood-opacity="0" result="BackgroundImageFix"/>
<feColorMatrix in="SourceAlpha" type="matrix" values="0 0 0 0 0 0 0 0 0 0 0 0 0 0 0 0 0 0 127 0" result="hardAlpha"/>
<feOffset dy="4"/>
<feGaussianBlur stdDeviation="2"/>
<feComposite in2="hardAlpha" operator="out"/>
<feColorMatrix type="matrix" values="0 0 0 0 0 0 0 0 0 0 0 0 0 0 0 0 0 0 0.25 0"/>
<feBlend mode="normal" in2="BackgroundImageFix" result="effect1_dropShadow_232_10"/>
<feBlend mode="normal" in="SourceGraphic" in2="effect1_dropShadow_232_10" result="shape"/>
</filter>
</defs>
</svg>
