<svg width="400" height="704" viewBox="0 0 400 704" fill="none" xmlns="http://www.w3.org/2000/svg">
<g filter="url(#filter0_d_232_8)">
<rect x="4" width="392" height="696" rx="55" fill="#F3F3F3" fill-opacity="0.95" shape-rendering="crispEdges"/>
<rect x="6.5" y="2.5" width="387" height="691" rx="52.5" stroke="white" stroke-width="5" shape-rendering="crispEdges"/>
</g>
<rect x="22.9219" y="17.875" width="353.548" height="658.57" rx="55" fill="#F6B5B9"/>
<path d="M332.188 329.479C332.188 404.852 273.079 465.954 200.165 465.954C127.251 465.954 68.1431 404.852 68.1431 329.479C68.1431 254.106 127.251 193.004 200.165 193.004C273.079 193.004 332.188 254.106 332.188 329.479Z" fill="#E86063"/>
<path fill-rule="evenodd" clip-rule="evenodd" d="M376.476 503.107V636.859H23.2329V503.278C76.0348 495.252 136.357 490.702 200.418 490.702C264.024 490.702 323.944 495.188 376.476 503.107Z" fill="#E86063"/>
<path fill-rule="evenodd" clip-rule="evenodd" d="M337.327 591.02C359.533 592.54 376.476 611.187 376.476 633.444C376.476 657.245 357.181 676.54 333.381 676.54H66.289C42.5098 676.54 23.2329 657.263 23.2329 633.484C23.2329 611.259 40.1416 592.635 62.3133 591.103C105.071 588.148 151.662 586.524 200.418 586.524C248.721 586.524 294.897 588.118 337.327 591.02Z" fill="#E86063"/>
<rect x="76.0039" y="608.785" width="241.552" height="3.87163" fill="white"/>
<path d="M174.342 554.68H179.166V578.98H174.342V554.68ZM156.954 583.588H179.994V587.404H156.954V583.588ZM156.954 576.64H161.742V585.568H156.954V576.64ZM159.258 556.48H163.218V559.72C163.218 566.236 160.23 572.248 153.75 574.516L151.338 570.7C156.918 568.792 159.258 564.148 159.258 559.72V556.48ZM160.23 556.48H164.154V559.72C164.154 564.076 166.422 568.36 171.894 570.124L169.446 573.94C163.146 571.816 160.23 566.164 160.23 559.72V556.48ZM184.563 571.096H214.731V574.912H184.563V571.096ZM197.631 573.508H202.455V580.528H197.631V573.508ZM188.271 556.048H210.915V568.432H188.271V556.048ZM206.199 559.792H192.951V564.688H206.199V559.792ZM188.055 583.588H211.419V587.404H188.055V583.588ZM188.055 577.72H192.807V584.848H188.055V577.72ZM232.44 558.424H242.304V562.204H232.44V558.424ZM232.44 565.732H242.304V569.512H232.44V565.732ZM226.896 555.976C231.9 555.976 235.68 559.324 235.68 563.932C235.68 568.612 231.9 571.96 226.896 571.96C221.892 571.96 218.076 568.612 218.076 563.932C218.076 559.324 221.892 555.976 226.896 555.976ZM226.896 559.936C224.448 559.936 222.648 561.448 222.648 563.932C222.648 566.488 224.448 567.964 226.896 567.964C229.344 567.964 231.144 566.488 231.144 563.932C231.144 561.448 229.344 559.936 226.896 559.936ZM240.792 554.644H245.58V572.572H240.792V554.644ZM223.44 574.012H228.192V577.18H240.828V574.012H245.58V587.62H223.44V574.012ZM228.192 580.852V583.804H240.828V580.852H228.192Z" fill="white"/>
<defs>
<filter id="filter0_d_232_8" x="0" y="0" width="400" height="704" filterUnits="userSpaceOnUse" color-interpolation-filters="sRGB">
<feFlood flood-opacity="0" result="BackgroundImageFix"/>
<feColorMatrix in="SourceAlpha" type="matrix" values="0 0 0 0 0 0 0 0 0 0 0 0 0 0 0 0 0 0 127 0" result="hardAlpha"/>
<feOffset dy="4"/>
<feGaussianBlur stdDeviation="2"/>
<feComposite in2="hardAlpha" operator="out"/>
<feColorMatrix type="matrix" values="0 0 0 0 0 0 0 0 0 0 0 0 0 0 0 0 0 0 0.25 0"/>
<feBlend mode="normal" in2="BackgroundImageFix" result="effect1_dropShadow_232_8"/>
<feBlend mode="normal" in="SourceGraphic" in2="effect1_dropShadow_232_8" result="shape"/>
</filter>
</defs>
</svg>
