<svg width="234" height="89" viewBox="0 0 234 89" fill="none" xmlns="http://www.w3.org/2000/svg">
<g filter="url(#filter0_d_149_98)">
<rect width="228" height="82.9685" rx="41.4842" transform="matrix(-1 0 0 1 231 0)" fill="#FFEFFD"/>
</g>
<path d="M158.911 33.9307H152.169V37.2861H158.911V33.9307ZM167.096 29.5406H163.74V32.6764C163.74 38.6031 166.218 43.6518 171.705 45.6587L173.9 42.3975C169.103 40.7982 167.096 36.7843 167.096 32.6764V29.5406ZM166.186 29.5406H162.862V32.7078C162.862 36.4394 160.949 40.171 156.371 41.7389L158.598 44.9375C163.803 43.056 166.186 38.1955 166.186 32.7078V29.5406ZM153.612 27.7845H149.441V49.2022H153.612V27.7845ZM168.664 52.9652H148.814V56.2892H168.664V52.9652ZM168.664 47.0385H164.462V54.8153H168.664V47.0385ZM143.924 40.9863H141.917C137.715 40.9863 135.019 40.9236 131.82 40.3905L131.444 43.7145C134.768 44.279 137.59 44.373 141.917 44.373H143.924V40.9863ZM143.924 29.6974H132.479V33.0214H139.911V42.8365H143.924V29.6974ZM141.102 35.3732H132.792V38.509H141.102V35.3732ZM124.106 27.7532H120.155V45.4706H124.106V27.7532ZM127.587 34.8715H122.977V38.1955H127.587V34.8715ZM130.315 28.2863H126.427V45.2824H130.315V28.2863ZM140.099 46.7249H120.155V56.7909H124.294V50.0489H140.099V46.7249ZM97.4226 27.7532H93.2833V56.7909H97.4226V27.7532ZM94.2241 39.0735H89.0813V42.5543H94.2241V39.0735ZM116.175 32.0492H99.2727V35.3732H116.175V32.0492ZM107.677 37.0038C103.443 37.0038 100.308 39.8888 100.308 43.934C100.308 47.9792 103.443 50.8642 107.677 50.8642C111.91 50.8642 115.046 47.9792 115.046 43.934C115.046 39.8888 111.91 37.0038 107.677 37.0038ZM107.677 40.3905C109.652 40.3905 111.063 41.7076 111.063 43.934C111.063 46.1604 109.652 47.4775 107.677 47.4775C105.701 47.4775 104.29 46.1604 104.29 43.934C104.29 41.7076 105.701 40.3905 107.677 40.3905ZM109.778 28.2235H105.607V33.3036H109.778V28.2235ZM67.1957 27.7532H62.9937V56.7909H67.1957V27.7532ZM75.7565 30.7636H71.6172C71.6172 39.6379 74.6276 46.913 84.9445 51.899L87.1082 48.575C78.7669 44.5612 75.7565 39.293 75.7565 31.5162V30.7636ZM85.5716 30.7636H73.781V34.0562H85.5716V30.7636Z" fill="#E86063"/>
<defs>
<filter id="filter0_d_149_98" x="0.386815" y="0" width="233.226" height="88.1951" filterUnits="userSpaceOnUse" color-interpolation-filters="sRGB">
<feFlood flood-opacity="0" result="BackgroundImageFix"/>
<feColorMatrix in="SourceAlpha" type="matrix" values="0 0 0 0 0 0 0 0 0 0 0 0 0 0 0 0 0 0 127 0" result="hardAlpha"/>
<feOffset dy="2.61318"/>
<feGaussianBlur stdDeviation="1.30659"/>
<feComposite in2="hardAlpha" operator="out"/>
<feColorMatrix type="matrix" values="0 0 0 0 0 0 0 0 0 0 0 0 0 0 0 0 0 0 0.25 0"/>
<feBlend mode="normal" in2="BackgroundImageFix" result="effect1_dropShadow_149_98"/>
<feBlend mode="normal" in="SourceGraphic" in2="effect1_dropShadow_149_98" result="shape"/>
</filter>
</defs>
</svg>
