<svg width="234" height="89" viewBox="0 0 234 89" fill="none" xmlns="http://www.w3.org/2000/svg">
<g filter="url(#filter0_d_39_164)">
<rect x="3" width="228" height="82.9685" rx="41.4842" fill="#FFEFFD"/>
</g>
<path d="M75.0888 33.9307H81.8308V37.2861H75.0888V33.9307ZM66.9043 29.5406H70.2597V32.6764C70.2597 38.6031 67.7824 43.6518 62.2947 45.6587L60.0996 42.3975C64.8974 40.7982 66.9043 36.7843 66.9043 32.6764V29.5406ZM67.8137 29.5406H71.1377V32.7078C71.1377 36.4394 73.0505 40.171 77.6288 41.7389L75.4024 44.9375C70.1969 43.056 67.8137 38.1955 67.8137 32.7078V29.5406ZM80.3884 27.7845H84.559V49.2022H80.3884V27.7845ZM65.3364 52.9652H85.1862V56.2892H65.3364V52.9652ZM65.3364 47.0385H69.5384V54.8153H65.3364V47.0385ZM90.0756 40.9863H92.0825C96.2845 40.9863 98.9813 40.9236 102.18 40.3905L102.556 43.7145C99.2322 44.279 96.41 44.373 92.0825 44.373H90.0756V40.9863ZM90.0756 29.6974H101.521V33.0214H94.0895V42.8365H90.0756V29.6974ZM92.8978 35.3732H101.208V38.509H92.8978V35.3732ZM109.894 27.7532H113.845V45.4706H109.894V27.7532ZM106.413 34.8715H111.023V38.1955H106.413V34.8715ZM103.685 28.2863H107.573V45.2824H103.685V28.2863ZM93.9013 46.7249H113.845V56.7909H109.706V50.0489H93.9013V46.7249ZM136.577 27.7532H140.717V56.7909H136.577V27.7532ZM139.776 39.0735H144.919V42.5543H139.776V39.0735ZM117.825 32.0492H134.727V35.3732H117.825V32.0492ZM126.323 37.0038C130.557 37.0038 133.692 39.8888 133.692 43.934C133.692 47.9792 130.557 50.8642 126.323 50.8642C122.09 50.8642 118.954 47.9792 118.954 43.934C118.954 39.8888 122.09 37.0038 126.323 37.0038ZM126.323 40.3905C124.348 40.3905 122.937 41.7076 122.937 43.934C122.937 46.1604 124.348 47.4775 126.323 47.4775C128.299 47.4775 129.71 46.1604 129.71 43.934C129.71 41.7076 128.299 40.3905 126.323 40.3905ZM124.222 28.2235H128.393V33.3036H124.222V28.2235ZM166.804 27.7532H171.006V56.7909H166.804V27.7532ZM158.243 30.7636H162.383C162.383 39.6379 159.372 46.913 149.056 51.899L146.892 48.575C155.233 44.5612 158.243 39.293 158.243 31.5162V30.7636ZM148.428 30.7636H160.219V34.0562H148.428V30.7636Z" fill="#9C92E8"/>
<defs>
<filter id="filter0_d_39_164" x="0.386815" y="0" width="233.226" height="88.1951" filterUnits="userSpaceOnUse" color-interpolation-filters="sRGB">
<feFlood flood-opacity="0" result="BackgroundImageFix"/>
<feColorMatrix in="SourceAlpha" type="matrix" values="0 0 0 0 0 0 0 0 0 0 0 0 0 0 0 0 0 0 127 0" result="hardAlpha"/>
<feOffset dy="2.61318"/>
<feGaussianBlur stdDeviation="1.30659"/>
<feComposite in2="hardAlpha" operator="out"/>
<feColorMatrix type="matrix" values="0 0 0 0 0 0 0 0 0 0 0 0 0 0 0 0 0 0 0.25 0"/>
<feBlend mode="normal" in2="BackgroundImageFix" result="effect1_dropShadow_39_164"/>
<feBlend mode="normal" in="SourceGraphic" in2="effect1_dropShadow_39_164" result="shape"/>
</filter>
</defs>
</svg>
