<svg width="128" height="38" viewBox="0 0 128 38" fill="none" xmlns="http://www.w3.org/2000/svg">
<g filter="url(#filter0_d_135_27)">
<rect x="4" width="120" height="30" rx="15" fill="#FDFFF7"/>
</g>
<path d="M15.8652 11.3496C15.8652 10.1517 16.1842 9.25326 16.8223 8.6543C17.4603 8.04883 18.3913 7.74609 19.6152 7.74609C19.9473 7.74609 20.2923 7.7819 20.6504 7.85352C21.015 7.91862 21.3275 8.00326 21.5879 8.10742L21.168 9.58203C20.8815 9.47786 20.5299 9.38672 20.1133 9.30859C19.7031 9.22396 19.3288 9.18164 18.9902 9.18164C18.9056 9.40951 18.834 9.69596 18.7754 10.041C18.7233 10.3861 18.6973 10.7702 18.6973 11.1934V12.4043H20.5918L20.7871 13.5566L18.6973 13.8887V21.5156L20.582 21.8477L20.3867 23H14.6641L14.4688 21.8477L15.8652 21.5156V13.8887L14.3711 13.5566L14.5664 12.4043H15.8652V11.3496ZM23.2676 13.8887L21.8711 13.5566L22.0664 12.4043L25.3379 12.1895L25.9043 13.7324C26.1908 13.1986 26.5423 12.8079 26.959 12.5605C27.3757 12.3132 27.8607 12.1895 28.4141 12.1895C28.6745 12.1895 28.9479 12.2253 29.2344 12.2969C29.5208 12.3685 29.7845 12.4694 30.0254 12.5996L29.7812 15.5586H27.9062L27.6426 13.7129C27.597 13.6999 27.5514 13.6901 27.5059 13.6836C27.4603 13.6771 27.418 13.6738 27.3789 13.6738C27.1836 13.6738 26.972 13.7943 26.7441 14.0352C26.5228 14.2695 26.3079 14.5951 26.0996 15.0117V21.5156L27.8184 21.8477L27.623 23H22.0664L21.8711 21.8477L23.2676 21.5156V13.8887ZM35.7188 23.2148C34.1497 23.2148 32.9355 22.8372 32.0762 22.082C31.2233 21.3268 30.7969 20.2689 30.7969 18.9082V18C30.7969 16.1836 31.2689 14.7611 32.2129 13.7324C33.1569 12.7038 34.4102 12.1895 35.9727 12.1895C37.5221 12.1895 38.7428 12.5638 39.6348 13.3125C40.5267 14.0612 40.9727 15.1549 40.9727 16.5938V17.5117C40.9727 19.25 40.5072 20.6367 39.5762 21.6719C38.6452 22.7005 37.3594 23.2148 35.7188 23.2148ZM38.1406 16.9258C38.1406 15.832 37.9128 14.9987 37.457 14.4258C37.0078 13.8464 36.4349 13.5566 35.7383 13.5566C35.4258 13.5566 35.1296 13.5924 34.8496 13.6641C34.5697 13.7357 34.3255 13.8301 34.1172 13.9473C33.9674 14.403 33.847 14.9336 33.7559 15.5391C33.6712 16.1445 33.6289 16.7695 33.6289 17.4141V18.5762C33.6289 19.6178 33.86 20.4251 34.3223 20.998C34.7845 21.5645 35.3509 21.8477 36.0215 21.8477C36.347 21.8477 36.6497 21.8118 36.9297 21.7402C37.2161 21.6686 37.457 21.5742 37.6523 21.457C37.7956 21.0859 37.9128 20.6074 38.0039 20.0215C38.0951 19.429 38.1406 18.7845 38.1406 18.0879V16.9258ZM42.2617 21.8477L43.6582 21.5156V13.8887L42.2617 13.5566L42.457 12.4043L45.7285 12.1895L46.2949 13.7324C46.9069 13.166 47.5059 12.7689 48.0918 12.541C48.6777 12.3066 49.2962 12.1895 49.9473 12.1895C50.6699 12.1895 51.2754 12.3066 51.7637 12.541C52.252 12.7689 52.6784 13.166 53.043 13.7324C53.6029 13.2116 54.2051 12.8242 54.8496 12.5703C55.4941 12.3164 56.1452 12.1895 56.8027 12.1895C57.9095 12.1895 58.7526 12.4727 59.332 13.0391C59.9115 13.599 60.2012 14.4258 60.2012 15.5195V21.5156L61.5977 21.8477L61.4023 23H56.168L55.9727 21.8477L57.3691 21.5156V15.666C57.3691 14.9434 57.2552 14.4128 57.0273 14.0742C56.7995 13.7292 56.4316 13.5566 55.9238 13.5566C55.5462 13.5566 55.1198 13.6966 54.6445 13.9766C54.1758 14.25 53.7428 14.5951 53.3457 15.0117V21.5156L54.7422 21.8477L54.5469 23H49.3125L49.1172 21.8477L50.5137 21.5156V15.666C50.5137 14.9238 50.3965 14.3867 50.1621 14.0547C49.9277 13.7227 49.5632 13.5566 49.0684 13.5566C48.6973 13.5566 48.2871 13.6868 47.8379 13.9473C47.3887 14.2012 46.9395 14.556 46.4902 15.0117V21.5156L47.8867 21.8477L47.6914 23H42.457L42.2617 21.8477ZM63.0234 22.0332C63.0234 21.7663 63.0527 21.5124 63.1113 21.2715C63.1764 21.0241 63.2611 20.8092 63.3652 20.627C63.4759 20.4382 63.6029 20.2917 63.7461 20.1875C63.8893 20.0768 64.0423 20.0215 64.2051 20.0215C64.485 20.0215 64.7454 20.054 64.9863 20.1191C65.2337 20.1777 65.4453 20.2624 65.6211 20.373C65.8034 20.4837 65.9466 20.6139 66.0508 20.7637C66.1549 20.9069 66.207 21.0599 66.207 21.2227C66.207 21.4896 66.1745 21.7435 66.1094 21.9844C66.0508 22.2188 65.9661 22.4303 65.8555 22.6191C65.7513 22.8014 65.6243 22.9447 65.4746 23.0488C65.3314 23.1595 65.1784 23.2148 65.0156 23.2148C64.7357 23.2148 64.4753 23.1823 64.2344 23.1172C63.9935 23.0586 63.7819 22.9772 63.5996 22.873C63.4238 22.7624 63.2839 22.6354 63.1797 22.4922C63.0755 22.349 63.0234 22.196 63.0234 22.0332ZM69.6543 11.2715L68.2578 10.9395L68.4531 9.78711H74.0098C75.39 9.78711 76.4674 10.0508 77.2422 10.5781C78.0234 11.099 78.4141 11.8509 78.4141 12.834C78.4141 13.5046 78.2057 14.1165 77.7891 14.6699C77.3724 15.2168 76.8125 15.6497 76.1094 15.9688L76.1289 16.125C77.0078 16.2747 77.7012 16.6068 78.209 17.1211C78.7233 17.6354 78.9805 18.2832 78.9805 19.0645C78.9805 20.2428 78.5573 21.1934 77.7109 21.916C76.8711 22.6387 75.7611 23 74.3809 23H68.4531L68.2578 21.8477L69.6543 21.5156V11.2715ZM72.584 16.8672V21.5449H73.4336C73.8242 21.5449 74.2148 21.5286 74.6055 21.4961C75.0026 21.4635 75.3867 21.3984 75.7578 21.3008C75.8424 21.0339 75.9108 20.7083 75.9629 20.3242C76.0215 19.9401 76.0508 19.556 76.0508 19.1719C76.0508 18.4362 75.8294 17.8698 75.3867 17.4727C74.944 17.069 74.3483 16.8672 73.5996 16.8672H72.584ZM72.584 11.2422V15.4121H73.375C73.6615 15.4121 73.9577 15.3893 74.2637 15.3438C74.5762 15.2982 74.8724 15.2331 75.1523 15.1484C75.2435 14.9076 75.3216 14.6113 75.3867 14.2598C75.4518 13.9017 75.4844 13.5501 75.4844 13.2051C75.4844 12.4954 75.3053 11.9909 74.9473 11.6914C74.5957 11.3919 74.0195 11.2422 73.2188 11.2422H72.584ZM89.4004 21.5156L90.7969 21.8477L90.6016 23L87.3301 23.2148L86.7734 21.6719C86.3698 22.1341 85.862 22.5085 85.25 22.7949C84.6445 23.0749 83.9935 23.2148 83.2969 23.2148C82.3333 23.2148 81.5944 23 81.0801 22.5703C80.5658 22.1341 80.3086 21.5059 80.3086 20.6855C80.3086 19.4486 80.8327 18.5208 81.8809 17.9023C82.9355 17.2839 84.498 16.9746 86.5684 16.9746V16.0664C86.5684 15.207 86.4186 14.5755 86.1191 14.1719C85.8262 13.7617 85.3477 13.5566 84.6836 13.5566C84.4102 13.5566 84.153 13.5729 83.9121 13.6055C83.6777 13.6315 83.4727 13.6641 83.2969 13.7031L82.7109 15.7734L81.0703 15.6758V12.7168C81.6237 12.5605 82.2454 12.4336 82.9355 12.3359C83.6322 12.2383 84.306 12.1895 84.957 12.1895C86.4674 12.1895 87.584 12.4922 88.3066 13.0977C89.0358 13.6966 89.4004 14.6048 89.4004 15.8223V21.5156ZM86.5684 18.3418C85.9173 18.3418 85.3086 18.3939 84.7422 18.498C84.1823 18.6022 83.7461 18.7389 83.4336 18.9082C83.3555 19.071 83.2871 19.276 83.2285 19.5234C83.1699 19.7643 83.1406 20.028 83.1406 20.3145C83.1406 20.8092 83.2415 21.1901 83.4434 21.457C83.6452 21.7174 83.9349 21.8477 84.3125 21.8477C84.7227 21.8477 85.1328 21.724 85.543 21.4766C85.9596 21.2227 86.3014 20.9329 86.5684 20.6074V18.3418ZM94.6836 17.9902V18.6348C94.6836 19.6764 94.9342 20.474 95.4355 21.0273C95.9434 21.5742 96.7083 21.8477 97.7305 21.8477C98.1732 21.8477 98.6875 21.7826 99.2734 21.6523C99.8594 21.5221 100.364 21.3757 100.787 21.2129V22.3457C100.312 22.5866 99.6999 22.7917 98.9512 22.9609C98.2025 23.1302 97.4408 23.2148 96.666 23.2148C95.123 23.2148 93.9349 22.8503 93.1016 22.1211C92.2682 21.3919 91.8516 20.3372 91.8516 18.957V18.1465C91.8516 16.2715 92.3203 14.8099 93.2578 13.7617C94.1953 12.7135 95.4974 12.1895 97.1641 12.1895C98.6484 12.1895 99.7096 12.5443 100.348 13.2539C100.986 13.957 101.305 15.1126 101.305 16.7207V17.9902H94.6836ZM95.1523 13.9375C95.0482 14.3151 94.9538 14.7448 94.8691 15.2266C94.791 15.7083 94.7389 16.1738 94.7129 16.623H98.4727C98.4727 15.4837 98.3424 14.6895 98.082 14.2402C97.8216 13.7845 97.3789 13.5566 96.7539 13.5566C96.4805 13.5566 96.2038 13.5892 95.9238 13.6543C95.6504 13.7194 95.3932 13.8138 95.1523 13.9375ZM102.301 21.8477L103.697 21.5156V9.44531L102.301 9.11328L102.496 7.96094L106.529 7.74609V16.9551L106.666 17.0137L110.455 13.7227L109.42 13.5566L109.615 12.4043H113.668L113.863 13.5566L112.77 13.8203L109.596 16.3984L112.809 21.5156L114.039 21.8477L113.844 23H110.738L107.604 18.0195L106.529 18.8887V21.5156L107.926 21.8477L107.73 23H102.496L102.301 21.8477Z" fill="#CA191D"/>
<defs>
<filter id="filter0_d_135_27" x="0" y="0" width="128" height="38" filterUnits="userSpaceOnUse" color-interpolation-filters="sRGB">
<feFlood flood-opacity="0" result="BackgroundImageFix"/>
<feColorMatrix in="SourceAlpha" type="matrix" values="0 0 0 0 0 0 0 0 0 0 0 0 0 0 0 0 0 0 127 0" result="hardAlpha"/>
<feOffset dy="4"/>
<feGaussianBlur stdDeviation="2"/>
<feComposite in2="hardAlpha" operator="out"/>
<feColorMatrix type="matrix" values="0 0 0 0 0 0 0 0 0 0 0 0 0 0 0 0 0 0 0.25 0"/>
<feBlend mode="normal" in2="BackgroundImageFix" result="effect1_dropShadow_135_27"/>
<feBlend mode="normal" in="SourceGraphic" in2="effect1_dropShadow_135_27" result="shape"/>
</filter>
</defs>
</svg>
