<svg width="128" height="38" viewBox="0 0 128 38" fill="none" xmlns="http://www.w3.org/2000/svg">
<g filter="url(#filter0_d_135_26)">
<rect x="4" width="120" height="30" rx="15" fill="#FDFFF7"/>
</g>
<path d="M16.7344 11.3496C16.7344 10.1517 17.0534 9.25326 17.6914 8.6543C18.3294 8.04883 19.2604 7.74609 20.4844 7.74609C20.8164 7.74609 21.1615 7.7819 21.5195 7.85352C21.8841 7.91862 22.1966 8.00326 22.457 8.10742L22.0371 9.58203C21.7507 9.47786 21.3991 9.38672 20.9824 9.30859C20.5723 9.22396 20.1979 9.18164 19.8594 9.18164C19.7747 9.40951 19.7031 9.69596 19.6445 10.041C19.5924 10.3861 19.5664 10.7702 19.5664 11.1934V12.4043H21.4609L21.6562 13.5566L19.5664 13.8887V21.5156L21.4512 21.8477L21.2559 23H15.5332L15.3379 21.8477L16.7344 21.5156V13.8887L15.2402 13.5566L15.4355 12.4043H16.7344V11.3496ZM24.1367 13.8887L22.7402 13.5566L22.9355 12.4043L26.207 12.1895L26.7734 13.7324C27.0599 13.1986 27.4115 12.8079 27.8281 12.5605C28.2448 12.3132 28.7298 12.1895 29.2832 12.1895C29.5436 12.1895 29.8171 12.2253 30.1035 12.2969C30.39 12.3685 30.6536 12.4694 30.8945 12.5996L30.6504 15.5586H28.7754L28.5117 13.7129C28.4661 13.6999 28.4206 13.6901 28.375 13.6836C28.3294 13.6771 28.2871 13.6738 28.248 13.6738C28.0527 13.6738 27.8411 13.7943 27.6133 14.0352C27.3919 14.2695 27.1771 14.5951 26.9688 15.0117V21.5156L28.6875 21.8477L28.4922 23H22.9355L22.7402 21.8477L24.1367 21.5156V13.8887ZM36.5879 23.2148C35.0189 23.2148 33.8047 22.8372 32.9453 22.082C32.0924 21.3268 31.666 20.2689 31.666 18.9082V18C31.666 16.1836 32.138 14.7611 33.082 13.7324C34.026 12.7038 35.2793 12.1895 36.8418 12.1895C38.3913 12.1895 39.612 12.5638 40.5039 13.3125C41.3958 14.0612 41.8418 15.1549 41.8418 16.5938V17.5117C41.8418 19.25 41.3763 20.6367 40.4453 21.6719C39.5143 22.7005 38.2285 23.2148 36.5879 23.2148ZM39.0098 16.9258C39.0098 15.832 38.7819 14.9987 38.3262 14.4258C37.877 13.8464 37.304 13.5566 36.6074 13.5566C36.2949 13.5566 35.9987 13.5924 35.7188 13.6641C35.4388 13.7357 35.1947 13.8301 34.9863 13.9473C34.8366 14.403 34.7161 14.9336 34.625 15.5391C34.5404 16.1445 34.498 16.7695 34.498 17.4141V18.5762C34.498 19.6178 34.7292 20.4251 35.1914 20.998C35.6536 21.5645 36.2201 21.8477 36.8906 21.8477C37.2161 21.8477 37.5189 21.8118 37.7988 21.7402C38.0853 21.6686 38.3262 21.5742 38.5215 21.457C38.6647 21.0859 38.7819 20.6074 38.873 20.0215C38.9642 19.429 39.0098 18.7845 39.0098 18.0879V16.9258ZM43.1309 21.8477L44.5273 21.5156V13.8887L43.1309 13.5566L43.3262 12.4043L46.5977 12.1895L47.1641 13.7324C47.776 13.166 48.375 12.7689 48.9609 12.541C49.5469 12.3066 50.1654 12.1895 50.8164 12.1895C51.5391 12.1895 52.1445 12.3066 52.6328 12.541C53.1211 12.7689 53.5475 13.166 53.9121 13.7324C54.472 13.2116 55.0742 12.8242 55.7188 12.5703C56.3633 12.3164 57.0143 12.1895 57.6719 12.1895C58.7786 12.1895 59.6217 12.4727 60.2012 13.0391C60.7806 13.599 61.0703 14.4258 61.0703 15.5195V21.5156L62.4668 21.8477L62.2715 23H57.0371L56.8418 21.8477L58.2383 21.5156V15.666C58.2383 14.9434 58.1243 14.4128 57.8965 14.0742C57.6686 13.7292 57.3008 13.5566 56.793 13.5566C56.4154 13.5566 55.9889 13.6966 55.5137 13.9766C55.0449 14.25 54.612 14.5951 54.2148 15.0117V21.5156L55.6113 21.8477L55.416 23H50.1816L49.9863 21.8477L51.3828 21.5156V15.666C51.3828 14.9238 51.2656 14.3867 51.0312 14.0547C50.7969 13.7227 50.4323 13.5566 49.9375 13.5566C49.5664 13.5566 49.1562 13.6868 48.707 13.9473C48.2578 14.2012 47.8086 14.556 47.3594 15.0117V21.5156L48.7559 21.8477L48.5605 23H43.3262L43.1309 21.8477ZM63.8926 22.0332C63.8926 21.7663 63.9219 21.5124 63.9805 21.2715C64.0456 21.0241 64.1302 20.8092 64.2344 20.627C64.3451 20.4382 64.472 20.2917 64.6152 20.1875C64.7585 20.0768 64.9115 20.0215 65.0742 20.0215C65.3542 20.0215 65.6146 20.054 65.8555 20.1191C66.1029 20.1777 66.3145 20.2624 66.4902 20.373C66.6725 20.4837 66.8158 20.6139 66.9199 20.7637C67.0241 20.9069 67.0762 21.0599 67.0762 21.2227C67.0762 21.4896 67.0436 21.7435 66.9785 21.9844C66.9199 22.2188 66.8353 22.4303 66.7246 22.6191C66.6204 22.8014 66.4935 22.9447 66.3438 23.0488C66.2005 23.1595 66.0475 23.2148 65.8848 23.2148C65.6048 23.2148 65.3444 23.1823 65.1035 23.1172C64.8626 23.0586 64.651 22.9772 64.4688 22.873C64.293 22.7624 64.153 22.6354 64.0488 22.4922C63.9447 22.349 63.8926 22.196 63.8926 22.0332ZM74.9277 15.0605C76.4316 15.9069 77.4668 16.6523 78.0332 17.2969C78.6061 17.9349 78.8926 18.7129 78.8926 19.6309C78.8926 20.7702 78.4173 21.6523 77.4668 22.2773C76.5163 22.9023 75.2174 23.2148 73.5703 23.2148C72.8151 23.2148 72.0892 23.1595 71.3926 23.0488C70.696 22.9382 70.1035 22.7884 69.6152 22.5996L69.4102 19.875L71.041 19.6309L71.8613 21.5547C72.1283 21.6198 72.4212 21.6719 72.7402 21.7109C73.0658 21.7435 73.3913 21.7598 73.7168 21.7598C74.0618 21.7598 74.4069 21.7337 74.752 21.6816C75.097 21.6296 75.403 21.5645 75.6699 21.4863C75.748 21.3301 75.8164 21.1348 75.875 20.9004C75.9336 20.666 75.9629 20.4349 75.9629 20.207C75.9629 19.6862 75.7578 19.2305 75.3477 18.8398C74.9375 18.4492 74.1888 17.9284 73.1016 17.2773C71.4414 16.3203 70.3802 15.5488 69.918 14.9629C69.4557 14.377 69.2214 13.6901 69.2148 12.9023C69.2148 11.8477 69.6738 11.0306 70.5918 10.4512C71.5163 9.86523 72.7891 9.57227 74.4102 9.57227C75.0677 9.57227 75.7122 9.61784 76.3438 9.70898C76.9818 9.80013 77.5482 9.92383 78.043 10.0801L78.248 12.9121L76.7344 13.127L75.9238 11.2031C75.6699 11.1445 75.3965 11.1022 75.1035 11.0762C74.8171 11.0436 74.5339 11.0273 74.2539 11.0273C73.9284 11.0273 73.6029 11.0501 73.2773 11.0957C72.9518 11.1413 72.6361 11.2096 72.3301 11.3008C72.278 11.4701 72.2324 11.6589 72.1934 11.8672C72.1608 12.0755 72.1445 12.2741 72.1445 12.4629C72.1445 12.873 72.304 13.2311 72.623 13.5371C72.9486 13.8431 73.7168 14.3509 74.9277 15.0605ZM80.0254 21.8477L81.4219 21.5156V9.44531L80.0254 9.11328L80.2207 7.96094L84.2539 7.74609V13.5566L84.3906 13.6152C84.8854 13.1465 85.4128 12.7917 85.9727 12.5508C86.5391 12.3099 87.1185 12.1895 87.7109 12.1895C88.8112 12.1895 89.651 12.4727 90.2305 13.0391C90.8164 13.599 91.1094 14.4258 91.1094 15.5195V21.5156L92.5059 21.8477L92.3105 23H87.0762L86.8809 21.8477L88.2773 21.5156V15.666C88.2773 14.9564 88.1634 14.429 87.9355 14.084C87.7142 13.7324 87.3464 13.5566 86.832 13.5566C86.4414 13.5566 86.0085 13.6999 85.5332 13.9863C85.0645 14.2663 84.638 14.6081 84.2539 15.0117V21.5156L85.6504 21.8477L85.4551 23H80.2207L80.0254 21.8477ZM97.8281 21.5156L99.2246 21.8477L99.0293 23H93.7949L93.5996 21.8477L94.9961 21.5156V13.8887L93.5996 13.5566L93.7949 12.4043L97.8281 12.1895V21.5156ZM94.752 9.37695C94.752 8.91471 94.8724 8.51107 95.1133 8.16602C95.3607 7.81445 95.6471 7.63867 95.9727 7.63867C96.4479 7.63867 96.8548 7.75911 97.1934 8C97.5319 8.24089 97.7012 8.53385 97.7012 8.87891C97.7012 9.34115 97.5775 9.74479 97.3301 10.0898C97.0827 10.4284 96.7995 10.5977 96.4805 10.5977C96.0117 10.5977 95.6048 10.4772 95.2598 10.2363C94.9212 9.99544 94.752 9.70898 94.752 9.37695ZM100.396 21.8477L101.793 21.5156V13.8887L100.396 13.5566L100.592 12.4043L103.863 12.1895L104.43 13.7324C105.042 13.166 105.641 12.7689 106.227 12.541C106.812 12.3066 107.431 12.1895 108.082 12.1895C109.189 12.1895 110.032 12.4727 110.611 13.0391C111.191 13.6055 111.48 14.4323 111.48 15.5195V21.5156L112.877 21.8477L112.682 23H107.447L107.252 21.8477L108.648 21.5156V15.666C108.648 14.9173 108.528 14.3802 108.287 14.0547C108.053 13.7227 107.691 13.5566 107.203 13.5566C106.858 13.5566 106.461 13.6771 106.012 13.918C105.569 14.1589 105.107 14.5234 104.625 15.0117V21.5156L106.021 21.8477L105.826 23H100.592L100.396 21.8477Z" fill="#CA191D"/>
<defs>
<filter id="filter0_d_135_26" x="0" y="0" width="128" height="38" filterUnits="userSpaceOnUse" color-interpolation-filters="sRGB">
<feFlood flood-opacity="0" result="BackgroundImageFix"/>
<feColorMatrix in="SourceAlpha" type="matrix" values="0 0 0 0 0 0 0 0 0 0 0 0 0 0 0 0 0 0 127 0" result="hardAlpha"/>
<feOffset dy="4"/>
<feGaussianBlur stdDeviation="2"/>
<feComposite in2="hardAlpha" operator="out"/>
<feColorMatrix type="matrix" values="0 0 0 0 0 0 0 0 0 0 0 0 0 0 0 0 0 0 0.25 0"/>
<feBlend mode="normal" in2="BackgroundImageFix" result="effect1_dropShadow_135_26"/>
<feBlend mode="normal" in="SourceGraphic" in2="effect1_dropShadow_135_26" result="shape"/>
</filter>
</defs>
</svg>
