<svg width="94" height="88" viewBox="0 0 94 88" fill="none" xmlns="http://www.w3.org/2000/svg">
<path d="M75 22.5V3.90625C74.9988 2.87061 74.5869 1.87773 73.8546 1.14543C73.1223 0.413121 72.1294 0.00118893 71.0938 0H22.6562C21.6206 0.00118893 20.6277 0.413121 19.8954 1.14543C19.1631 1.87773 18.7512 2.87061 18.75 3.90625V22.5L0 35.8918V87.5H93.75V35.8918L75 22.5ZM85.4842 37.6693L75 44.5234V30.1797L85.4842 37.6693ZM25 6.25H68.75V48.61L57.5848 55.9103L48.4875 51.1932L38.5727 55.9797L25 47.7393V6.25ZM48.3875 58.1816L87.5 78.4623V81.25H6.25V78.524L48.3875 58.1816ZM6.25 43.667L31.8641 59.2188L6.25 71.5838V43.667ZM63.9543 59.2139L87.5 43.8178V71.4221L63.9543 59.2139ZM18.75 30.1797V43.9453L8.3332 37.6201L18.75 30.1797Z" fill="#1C5E3F"/>
</svg>
