<svg width="30" height="35" viewBox="0 0 30 35" fill="none" xmlns="http://www.w3.org/2000/svg">
<path d="M15.7949 0.408248C15.9207 0.279049 16.0711 0.17636 16.2372 0.106242C16.4033 0.0361248 16.5818 0 16.7621 0C16.9424 0 17.1209 0.0361248 17.287 0.106242C17.4531 0.17636 17.6035 0.279049 17.7293 0.408248C17.9872 0.673059 18.1315 1.02812 18.1315 1.39779C18.1315 1.76745 17.9872 2.12251 17.7293 2.38732L3.2722 17.217L17.7293 32.0497C17.8594 32.183 17.962 32.3406 18.0313 32.5135C18.1005 32.6864 18.135 32.8713 18.1328 33.0575C18.1306 33.2438 18.0918 33.4278 18.0184 33.599C17.9451 33.7703 17.8388 33.9254 17.7055 34.0555C17.5786 34.1796 17.4284 34.2774 17.2637 34.3433C17.0989 34.4093 16.9228 34.4421 16.7453 34.4399C16.5678 34.4377 16.3926 34.4005 16.2295 34.3305C16.0664 34.2604 15.9187 34.1589 15.7949 34.0318L0.421136 18.2526C0.151119 17.9755 0 17.6039 0 17.217C0 16.8302 0.151119 16.4586 0.421136 16.1815L15.7949 0.408248ZM27.662 0.408248C27.7878 0.279049 27.9382 0.17636 28.1043 0.106242C28.2704 0.0361248 28.4489 0 28.6292 0C28.8095 0 28.9879 0.0361248 29.154 0.106242C29.3202 0.17636 29.4705 0.279049 29.5963 0.408248C29.8542 0.673059 29.9985 1.02812 29.9985 1.39779C29.9985 1.76745 29.8542 2.12251 29.5963 2.38732L15.1393 17.217L29.5963 32.0497C29.7265 32.183 29.8291 32.3406 29.8984 32.5135C29.9676 32.6864 30.0021 32.8713 29.9999 33.0575C29.9977 33.2438 29.9588 33.4278 29.8855 33.599C29.8122 33.7703 29.7059 33.9254 29.5726 34.0555C29.4457 34.1796 29.2955 34.2774 29.1307 34.3433C28.966 34.4093 28.7898 34.4421 28.6124 34.4399C28.4349 34.4377 28.2596 34.4005 28.0965 34.3305C27.9335 34.2604 27.7858 34.1589 27.662 34.0318L12.2882 18.2526C12.0182 17.9755 11.8671 17.6039 11.8671 17.217C11.8671 16.8302 12.0182 16.4586 12.2882 16.1815L27.662 0.408248Z" fill="#686868"/>
</svg>
