<svg width="187" height="126" viewBox="0 0 187 126" fill="none" xmlns="http://www.w3.org/2000/svg">
<g filter="url(#filter0_d_119_15)">
<ellipse cx="97" cy="69.5" rx="49" ry="48.5" fill="#CA191D"/>
<g filter="url(#filter1_d_119_15)">
<rect x="34" y="7" width="119" height="29" rx="14.5" fill="#FDFFF7"/>
</g>
<path d="M54.8376 27.48H71.5976V29.64H54.8376V27.48ZM61.8576 23.38H64.5176V27.98H61.8576V23.38ZM56.5776 14.62H69.7576V23.72H56.5776V14.62ZM67.1576 16.74H59.1976V21.62H67.1576V16.74ZM73.236 22.4H89.996V24.52H73.236V22.4ZM75.256 18.78H88.156V20.92H75.256V18.78ZM75.256 13.94H87.996V16.04H77.916V19.56H75.256V13.94ZM75.216 29.32H88.276V31.46H75.216V29.32ZM75.216 25.92H77.856V29.86H75.216V25.92ZM109.826 13.26H112.486V26.9H109.826V13.26ZM97.4455 14.58H107.226V16.7H97.4455V14.58ZM97.2455 24.7L96.9855 22.52C99.9655 22.52 104.126 22.48 107.466 22.1L107.606 24.04C104.166 24.62 100.186 24.7 97.2455 24.7ZM98.9055 16.44H101.466V22.78H98.9055V16.44ZM103.206 16.44H105.746V22.78H103.206V16.44ZM107.586 16.5H111.266V18.62H107.586V16.5ZM107.586 20.22H111.266V22.36H107.586V20.22ZM100.246 29.34H112.906V31.46H100.246V29.34ZM100.246 25.9H102.926V30.94H100.246V25.9ZM119.844 16.18H121.964V18.26C121.964 22.54 120.224 26.72 116.744 28.3L115.244 26.2C118.344 24.82 119.844 21.4 119.844 18.26V16.18ZM120.444 16.18H122.544V18.26C122.544 21.26 124.024 24.46 127.124 25.74L125.684 27.84C122.164 26.32 120.444 22.38 120.444 18.26V16.18ZM115.984 15.04H126.364V17.22H115.984V15.04ZM128.084 13.26H130.764V31.78H128.084V13.26Z" fill="#CA191D"/>
<path d="M117.25 88H71" stroke="white" stroke-width="4.11111" stroke-linecap="round" stroke-linejoin="round"/>
<path d="M117.25 75.667H71" stroke="white" stroke-width="4.11111" stroke-linecap="round" stroke-linejoin="round"/>
<path d="M117.25 63.333H71" stroke="white" stroke-width="4.11111" stroke-linecap="round" stroke-linejoin="round"/>
<path d="M117.25 51H71" stroke="white" stroke-width="4.11111" stroke-linecap="round" stroke-linejoin="round"/>
</g>
<defs>
<filter id="filter0_d_119_15" x="30" y="7" width="127" height="119" filterUnits="userSpaceOnUse" color-interpolation-filters="sRGB">
<feFlood flood-opacity="0" result="BackgroundImageFix"/>
<feColorMatrix in="SourceAlpha" type="matrix" values="0 0 0 0 0 0 0 0 0 0 0 0 0 0 0 0 0 0 127 0" result="hardAlpha"/>
<feOffset dy="4"/>
<feGaussianBlur stdDeviation="2"/>
<feComposite in2="hardAlpha" operator="out"/>
<feColorMatrix type="matrix" values="0 0 0 0 0 0 0 0 0 0 0 0 0 0 0 0 0 0 0.25 0"/>
<feBlend mode="normal" in2="BackgroundImageFix" result="effect1_dropShadow_119_15"/>
<feBlend mode="normal" in="SourceGraphic" in2="effect1_dropShadow_119_15" result="shape"/>
</filter>
<filter id="filter1_d_119_15" x="30" y="7" width="127" height="37" filterUnits="userSpaceOnUse" color-interpolation-filters="sRGB">
<feFlood flood-opacity="0" result="BackgroundImageFix"/>
<feColorMatrix in="SourceAlpha" type="matrix" values="0 0 0 0 0 0 0 0 0 0 0 0 0 0 0 0 0 0 127 0" result="hardAlpha"/>
<feOffset dy="4"/>
<feGaussianBlur stdDeviation="2"/>
<feComposite in2="hardAlpha" operator="out"/>
<feColorMatrix type="matrix" values="0 0 0 0 0 0 0 0 0 0 0 0 0 0 0 0 0 0 0.25 0"/>
<feBlend mode="normal" in2="BackgroundImageFix" result="effect1_dropShadow_119_15"/>
<feBlend mode="normal" in="SourceGraphic" in2="effect1_dropShadow_119_15" result="shape"/>
</filter>
</defs>
</svg>
