<svg width="30" height="35" viewBox="0 0 30 35" fill="none" xmlns="http://www.w3.org/2000/svg">
<path d="M14.2051 34.0276C14.0793 34.1568 13.9289 34.2595 13.7628 34.3296C13.5967 34.3997 13.4182 34.4358 13.2379 34.4358C13.0576 34.4358 12.8791 34.3997 12.713 34.3296C12.5469 34.2595 12.3965 34.1568 12.2707 34.0276C12.0128 33.7628 11.8685 33.4078 11.8685 33.0382C11.8685 32.6686 12.0128 32.3135 12.2707 32.0488L26.7278 17.2209L12.2707 2.38999C12.1406 2.25676 12.038 2.09919 11.9687 1.92629C11.8995 1.75339 11.865 1.56855 11.8672 1.38231C11.8694 1.19607 11.9082 1.01209 11.9816 0.840875C12.0549 0.669662 12.1612 0.514569 12.2945 0.384456C12.4214 0.260416 12.5716 0.162623 12.7363 0.0966737C12.9011 0.0307245 13.0772 -0.00208734 13.2547 0.000117138C13.4322 0.00232162 13.6074 0.0394999 13.7705 0.109522C13.9336 0.179543 14.0813 0.281034 14.2051 0.408189L29.5789 16.1855C29.8489 16.4625 30 16.834 30 17.2209C30 17.6077 29.8489 17.9792 29.5789 18.2563L14.2051 34.0276ZM2.33801 34.0276C2.21223 34.1568 2.06184 34.2595 1.89573 34.3296C1.72962 34.3997 1.55114 34.4358 1.37084 34.4358C1.19054 34.4358 1.01206 34.3997 0.845952 34.3296C0.679839 34.2595 0.529456 34.1568 0.403676 34.0276C0.145774 33.7628 0.0014505 33.4078 0.0014505 33.0382C0.0014505 32.6686 0.145774 32.3135 0.403676 32.0488L14.8607 17.2209L0.403676 2.38999C0.273525 2.25676 0.170895 2.09919 0.101648 1.92629C0.0324017 1.75339 -0.00210593 1.56855 9.8079e-05 1.38231C0.00230209 1.19607 0.0411745 1.01209 0.114494 0.840875C0.187813 0.669662 0.294141 0.514569 0.427409 0.384456C0.554339 0.260416 0.704485 0.162623 0.869251 0.0966737C1.03402 0.0307245 1.21017 -0.00208734 1.38763 0.000117138C1.56509 0.00232162 1.74038 0.0394999 1.90345 0.109522C2.06653 0.179543 2.2142 0.281034 2.33801 0.408189L17.7118 16.1855C17.9818 16.4625 18.1329 16.834 18.1329 17.2209C18.1329 17.6077 17.9818 17.9792 17.7118 18.2563L2.33801 34.0276Z" fill="#686868"/>
</svg>
