<svg width="234" height="89" viewBox="0 0 234 89" fill="none" xmlns="http://www.w3.org/2000/svg">
<path d="M172.969 38.7646H166.736V41.8671H172.969V38.7646ZM180.537 34.7054H177.435V37.6048C177.435 43.0848 179.725 47.753 184.799 49.6087L186.829 46.5932C182.393 45.1145 180.537 41.4032 180.537 37.6048V34.7054ZM179.696 34.7054H176.623V37.6338C176.623 41.0842 174.854 44.5346 170.621 45.9843L172.679 48.9418C177.493 47.2021 179.696 42.7079 179.696 37.6338V34.7054ZM168.069 33.0816H164.213V52.8851H168.069V33.0816ZM181.987 56.3645H163.633V59.4379H181.987V56.3645ZM181.987 50.8844H178.102V58.0752H181.987V50.8844ZM159.112 45.2885H157.257C153.371 45.2885 150.878 45.2305 147.92 44.7376L147.572 47.811C150.646 48.3329 153.255 48.4199 157.257 48.4199H159.112V45.2885ZM159.112 34.8503H148.529V37.9238H155.401V46.9991H159.112V34.8503ZM156.503 40.0984H148.819V42.9979H156.503V40.0984ZM140.787 33.0527H137.134V49.4347H140.787V33.0527ZM144.006 39.6345H139.744V42.7079H144.006V39.6345ZM146.528 33.5456H142.933V49.2607H146.528V33.5456ZM155.575 50.5945H137.134V59.9018H140.961V53.6679H155.575V50.5945ZM116.115 33.0527H112.288V59.9018H116.115V33.0527ZM113.158 43.5198H108.403V46.7382H113.158V43.5198ZM133.454 37.0249H117.826V40.0984H133.454V37.0249ZM125.596 41.6061C121.682 41.6061 118.783 44.2736 118.783 48.014C118.783 51.7543 121.682 54.4218 125.596 54.4218C129.511 54.4218 132.41 51.7543 132.41 48.014C132.41 44.2736 129.511 41.6061 125.596 41.6061ZM125.596 44.7376C127.423 44.7376 128.728 45.9553 128.728 48.014C128.728 50.0726 127.423 51.2904 125.596 51.2904C123.77 51.2904 122.465 50.0726 122.465 48.014C122.465 45.9553 123.77 44.7376 125.596 44.7376ZM127.539 33.4876H123.683V38.1847H127.539V33.4876ZM88.1665 33.0527H84.2812V59.9018H88.1665V33.0527ZM96.082 35.8362H92.2547C92.2547 44.0417 95.0382 50.7685 104.578 55.3786L106.578 52.3052C98.8655 48.5939 96.082 43.7227 96.082 36.532V35.8362ZM105.157 35.8362H94.2554V38.8806H105.157V35.8362Z" fill="#CF8EC5"/>
<g filter="url(#filter0_d_149_100)">
<rect width="228" height="82.9685" rx="41.4842" transform="matrix(-1 0 0 1 231 0)" fill="#FFEFFD"/>
</g>
<path d="M158.911 33.9307H152.169V37.2861H158.911V33.9307ZM167.096 29.5406H163.74V32.6764C163.74 38.6031 166.218 43.6518 171.705 45.6587L173.9 42.3975C169.103 40.7982 167.096 36.7843 167.096 32.6764V29.5406ZM166.186 29.5406H162.862V32.7078C162.862 36.4394 160.949 40.171 156.371 41.7389L158.598 44.9375C163.803 43.056 166.186 38.1955 166.186 32.7078V29.5406ZM153.612 27.7845H149.441V49.2022H153.612V27.7845ZM168.664 52.9652H148.814V56.2892H168.664V52.9652ZM168.664 47.0385H164.462V54.8153H168.664V47.0385ZM143.924 40.9863H141.917C137.715 40.9863 135.019 40.9236 131.82 40.3905L131.444 43.7145C134.768 44.279 137.59 44.373 141.917 44.373H143.924V40.9863ZM143.924 29.6974H132.479V33.0214H139.911V42.8365H143.924V29.6974ZM141.102 35.3732H132.792V38.509H141.102V35.3732ZM124.106 27.7532H120.155V45.4706H124.106V27.7532ZM127.587 34.8715H122.977V38.1955H127.587V34.8715ZM130.315 28.2863H126.427V45.2824H130.315V28.2863ZM140.099 46.7249H120.155V56.7909H124.294V50.0489H140.099V46.7249ZM97.4226 27.7532H93.2833V56.7909H97.4226V27.7532ZM94.2241 39.0735H89.0813V42.5543H94.2241V39.0735ZM116.175 32.0492H99.2727V35.3732H116.175V32.0492ZM107.677 37.0038C103.443 37.0038 100.308 39.8888 100.308 43.934C100.308 47.9792 103.443 50.8642 107.677 50.8642C111.91 50.8642 115.046 47.9792 115.046 43.934C115.046 39.8888 111.91 37.0038 107.677 37.0038ZM107.677 40.3905C109.652 40.3905 111.063 41.7076 111.063 43.934C111.063 46.1604 109.652 47.4775 107.677 47.4775C105.701 47.4775 104.29 46.1604 104.29 43.934C104.29 41.7076 105.701 40.3905 107.677 40.3905ZM109.778 28.2235H105.607V33.3036H109.778V28.2235ZM67.1957 27.7532H62.9937V56.7909H67.1957V27.7532ZM75.7565 30.7636H71.6172C71.6172 39.6379 74.6276 46.913 84.9445 51.899L87.1082 48.575C78.7669 44.5612 75.7565 39.293 75.7565 31.5162V30.7636ZM85.5716 30.7636H73.781V34.0562H85.5716V30.7636Z" fill="#D294C9"/>
<defs>
<filter id="filter0_d_149_100" x="0.386815" y="0" width="233.226" height="88.1951" filterUnits="userSpaceOnUse" color-interpolation-filters="sRGB">
<feFlood flood-opacity="0" result="BackgroundImageFix"/>
<feColorMatrix in="SourceAlpha" type="matrix" values="0 0 0 0 0 0 0 0 0 0 0 0 0 0 0 0 0 0 127 0" result="hardAlpha"/>
<feOffset dy="2.61318"/>
<feGaussianBlur stdDeviation="1.30659"/>
<feComposite in2="hardAlpha" operator="out"/>
<feColorMatrix type="matrix" values="0 0 0 0 0 0 0 0 0 0 0 0 0 0 0 0 0 0 0.25 0"/>
<feBlend mode="normal" in2="BackgroundImageFix" result="effect1_dropShadow_149_100"/>
<feBlend mode="normal" in="SourceGraphic" in2="effect1_dropShadow_149_100" result="shape"/>
</filter>
</defs>
</svg>
