<svg width="128" height="38" viewBox="0 0 128 38" fill="none" xmlns="http://www.w3.org/2000/svg">
<g filter="url(#filter0_d_135_25)">
<rect x="4" width="120" height="30" rx="15" fill="#FDFFF7"/>
</g>
<path d="M25.5723 11.3496C25.5723 10.1517 25.8913 9.25326 26.5293 8.6543C27.1673 8.04883 28.0983 7.74609 29.3223 7.74609C29.6543 7.74609 29.9993 7.7819 30.3574 7.85352C30.722 7.91862 31.0345 8.00326 31.2949 8.10742L30.875 9.58203C30.5885 9.47786 30.237 9.38672 29.8203 9.30859C29.4102 9.22396 29.0358 9.18164 28.6973 9.18164C28.6126 9.40951 28.541 9.69596 28.4824 10.041C28.4303 10.3861 28.4043 10.7702 28.4043 11.1934V12.4043H30.2988L30.4941 13.5566L28.4043 13.8887V21.5156L30.2891 21.8477L30.0938 23H24.3711L24.1758 21.8477L25.5723 21.5156V13.8887L24.0781 13.5566L24.2734 12.4043H25.5723V11.3496ZM32.9746 13.8887L31.5781 13.5566L31.7734 12.4043L35.0449 12.1895L35.6113 13.7324C35.8978 13.1986 36.2493 12.8079 36.666 12.5605C37.0827 12.3132 37.5677 12.1895 38.1211 12.1895C38.3815 12.1895 38.6549 12.2253 38.9414 12.2969C39.2279 12.3685 39.4915 12.4694 39.7324 12.5996L39.4883 15.5586H37.6133L37.3496 13.7129C37.304 13.6999 37.2585 13.6901 37.2129 13.6836C37.1673 13.6771 37.125 13.6738 37.0859 13.6738C36.8906 13.6738 36.679 13.7943 36.4512 14.0352C36.2298 14.2695 36.015 14.5951 35.8066 15.0117V21.5156L37.5254 21.8477L37.3301 23H31.7734L31.5781 21.8477L32.9746 21.5156V13.8887ZM45.4258 23.2148C43.8568 23.2148 42.6426 22.8372 41.7832 22.082C40.9303 21.3268 40.5039 20.2689 40.5039 18.9082V18C40.5039 16.1836 40.9759 14.7611 41.9199 13.7324C42.8639 12.7038 44.1172 12.1895 45.6797 12.1895C47.2292 12.1895 48.4499 12.5638 49.3418 13.3125C50.2337 14.0612 50.6797 15.1549 50.6797 16.5938V17.5117C50.6797 19.25 50.2142 20.6367 49.2832 21.6719C48.3522 22.7005 47.0664 23.2148 45.4258 23.2148ZM47.8477 16.9258C47.8477 15.832 47.6198 14.9987 47.1641 14.4258C46.7148 13.8464 46.1419 13.5566 45.4453 13.5566C45.1328 13.5566 44.8366 13.5924 44.5566 13.6641C44.2767 13.7357 44.0326 13.8301 43.8242 13.9473C43.6745 14.403 43.554 14.9336 43.4629 15.5391C43.3783 16.1445 43.3359 16.7695 43.3359 17.4141V18.5762C43.3359 19.6178 43.5671 20.4251 44.0293 20.998C44.4915 21.5645 45.0579 21.8477 45.7285 21.8477C46.054 21.8477 46.3568 21.8118 46.6367 21.7402C46.9232 21.6686 47.1641 21.5742 47.3594 21.457C47.5026 21.0859 47.6198 20.6074 47.7109 20.0215C47.8021 19.429 47.8477 18.7845 47.8477 18.0879V16.9258ZM51.9688 21.8477L53.3652 21.5156V13.8887L51.9688 13.5566L52.1641 12.4043L55.4355 12.1895L56.002 13.7324C56.6139 13.166 57.2129 12.7689 57.7988 12.541C58.3848 12.3066 59.0033 12.1895 59.6543 12.1895C60.377 12.1895 60.9824 12.3066 61.4707 12.541C61.959 12.7689 62.3854 13.166 62.75 13.7324C63.3099 13.2116 63.9121 12.8242 64.5566 12.5703C65.2012 12.3164 65.8522 12.1895 66.5098 12.1895C67.6165 12.1895 68.4596 12.4727 69.0391 13.0391C69.6185 13.599 69.9082 14.4258 69.9082 15.5195V21.5156L71.3047 21.8477L71.1094 23H65.875L65.6797 21.8477L67.0762 21.5156V15.666C67.0762 14.9434 66.9622 14.4128 66.7344 14.0742C66.5065 13.7292 66.1387 13.5566 65.6309 13.5566C65.2533 13.5566 64.8268 13.6966 64.3516 13.9766C63.8828 14.25 63.4499 14.5951 63.0527 15.0117V21.5156L64.4492 21.8477L64.2539 23H59.0195L58.8242 21.8477L60.2207 21.5156V15.666C60.2207 14.9238 60.1035 14.3867 59.8691 14.0547C59.6348 13.7227 59.2702 13.5566 58.7754 13.5566C58.4043 13.5566 57.9941 13.6868 57.5449 13.9473C57.0957 14.2012 56.6465 14.556 56.1973 15.0117V21.5156L57.5938 21.8477L57.3984 23H52.1641L51.9688 21.8477ZM72.7305 22.0332C72.7305 21.7663 72.7598 21.5124 72.8184 21.2715C72.8835 21.0241 72.9681 20.8092 73.0723 20.627C73.1829 20.4382 73.3099 20.2917 73.4531 20.1875C73.5964 20.0768 73.7493 20.0215 73.9121 20.0215C74.1921 20.0215 74.4525 20.054 74.6934 20.1191C74.9408 20.1777 75.1523 20.2624 75.3281 20.373C75.5104 20.4837 75.6536 20.6139 75.7578 20.7637C75.862 20.9069 75.9141 21.0599 75.9141 21.2227C75.9141 21.4896 75.8815 21.7435 75.8164 21.9844C75.7578 22.2188 75.6732 22.4303 75.5625 22.6191C75.4583 22.8014 75.3314 22.9447 75.1816 23.0488C75.0384 23.1595 74.8854 23.2148 74.7227 23.2148C74.4427 23.2148 74.1823 23.1823 73.9414 23.1172C73.7005 23.0586 73.4889 22.9772 73.3066 22.873C73.1309 22.7624 72.9909 22.6354 72.8867 22.4922C72.7826 22.349 72.7305 22.196 72.7305 22.0332ZM84.0684 23.2148C82.0957 23.2148 80.6113 22.7689 79.6152 21.877C78.6191 20.985 78.1211 19.6504 78.1211 17.873V17.1016C78.1211 14.5365 78.6615 12.6419 79.7422 11.418C80.8229 10.1875 82.3919 9.57227 84.4492 9.57227C86.4154 9.57227 87.903 10.0182 88.9121 10.9102C89.9277 11.8021 90.4355 13.14 90.4355 14.9238V15.6855C90.4355 18.1921 89.9049 20.0736 88.8438 21.3301C87.7826 22.5866 86.1908 23.2148 84.0684 23.2148ZM87.5059 15.3535C87.5059 13.9408 87.2161 12.8665 86.6367 12.1309C86.0638 11.3952 85.2142 11.0273 84.0879 11.0273C83.5996 11.0273 83.1341 11.0924 82.6914 11.2227C82.2552 11.3529 81.9004 11.5091 81.627 11.6914C81.5098 12.1081 81.3828 12.7363 81.2461 13.5762C81.1159 14.416 81.0508 15.2689 81.0508 16.1348V17.4336C81.0508 18.7943 81.3665 19.8555 81.998 20.6172C82.6361 21.3789 83.4629 21.7598 84.4785 21.7598C84.9993 21.7598 85.4844 21.6882 85.9336 21.5449C86.3893 21.4017 86.7246 21.2487 86.9395 21.0859C87.0762 20.5977 87.2031 19.9368 87.3203 19.1035C87.444 18.2637 87.5059 17.4466 87.5059 16.6523V15.3535ZM91.5781 21.8477L92.9746 21.5156V9.44531L91.5781 9.11328L91.7734 7.96094L95.8066 7.74609V13.5566L95.9434 13.6152C96.4382 13.1465 96.9655 12.7917 97.5254 12.5508C98.0918 12.3099 98.6712 12.1895 99.2637 12.1895C100.364 12.1895 101.204 12.4727 101.783 13.0391C102.369 13.599 102.662 14.4258 102.662 15.5195V21.5156L104.059 21.8477L103.863 23H98.6289L98.4336 21.8477L99.8301 21.5156V15.666C99.8301 14.9564 99.7161 14.429 99.4883 14.084C99.2669 13.7324 98.8991 13.5566 98.3848 13.5566C97.9941 13.5566 97.5612 13.6999 97.0859 13.9863C96.6172 14.2663 96.1908 14.6081 95.8066 15.0117V21.5156L97.2031 21.8477L97.0078 23H91.7734L91.5781 21.8477Z" fill="#CA191D"/>
<defs>
<filter id="filter0_d_135_25" x="0" y="0" width="128" height="38" filterUnits="userSpaceOnUse" color-interpolation-filters="sRGB">
<feFlood flood-opacity="0" result="BackgroundImageFix"/>
<feColorMatrix in="SourceAlpha" type="matrix" values="0 0 0 0 0 0 0 0 0 0 0 0 0 0 0 0 0 0 127 0" result="hardAlpha"/>
<feOffset dy="4"/>
<feGaussianBlur stdDeviation="2"/>
<feComposite in2="hardAlpha" operator="out"/>
<feColorMatrix type="matrix" values="0 0 0 0 0 0 0 0 0 0 0 0 0 0 0 0 0 0 0.25 0"/>
<feBlend mode="normal" in2="BackgroundImageFix" result="effect1_dropShadow_135_25"/>
<feBlend mode="normal" in="SourceGraphic" in2="effect1_dropShadow_135_25" result="shape"/>
</filter>
</defs>
</svg>
